<svg width="155" height="27" viewBox="0 0 155 27" fill="none" xmlns="http://www.w3.org/2000/svg">
<path fill-rule="evenodd" clip-rule="evenodd" d="M0 26.74H30.63L15.79 0L0 26.74Z" fill="#FFB71B"/>
<path fill-rule="evenodd" clip-rule="evenodd" d="M3.60001 26.74H34.25L19.4 0L3.60001 26.74Z" fill="#00953B"/>
<path d="M51.32 7.84995H43.36V1.19995H39.62V18.25H43.36V11.19H51.32V18.25H55.06V1.19995H51.32V7.84995Z" fill="#002D74"/>
<path d="M132.53 2.16995C131.74 2.96995 131.71 4.13995 131.69 4.82995V18.26H135.43V12.82H143.36V18.26H147.11V1.19995H135.45C134.34 1.20995 133.31 1.36995 132.53 2.16995ZM136.38 4.52995H143.36V9.47995H135.43V5.49995C135.44 5.29995 135.41 4.94995 135.57 4.73995C135.74 4.51995 136.03 4.53995 136.38 4.52995Z" fill="#002D74"/>
<path d="M106.08 1.19995H94.4V18.26H98.14V4.52995H105.15C105.5 4.53995 105.79 4.51995 105.96 4.73995C106.13 4.94995 106.1 5.29995 106.11 5.49995V18.25H109.84V4.82995C109.82 4.14995 109.79 2.97995 109.01 2.16995C108.23 1.36995 107.19 1.20995 106.08 1.19995Z" fill="#002D74"/>
<path d="M87.35 13.95C87.34 14.15 87.37 14.49 87.2 14.71C87.02 14.94 86.74 14.91 86.39 14.92H79.38V1.19995H75.64V18.26H87.32C88.43 18.25 89.47 18.09 90.25 17.28C91.04 16.48 91.07 15.31 91.09 14.62V1.19995H87.35V13.95Z" fill="#002D74"/>
<path d="M128.59 4.82995C128.57 4.14995 128.54 2.97995 127.76 2.16995C126.98 1.36995 125.94 1.20995 124.83 1.19995H116.89H113.15V18.26H124.83C125.94 18.25 126.97 18.09 127.76 17.28C128.54 16.48 128.57 15.31 128.59 14.62V4.82995ZM124.86 13.95C124.85 14.15 124.88 14.49 124.72 14.71C124.55 14.94 124.26 14.91 123.91 14.92H116.89V4.52995H123.91C124.26 4.53995 124.55 4.51995 124.72 4.73995C124.88 4.94995 124.85 5.29995 124.86 5.49995V13.95Z" fill="#002D74"/>
<path d="M65.36 8.65995L60.82 1.19995H56.38L63.36 11.95V18.25H67.35V11.95L74.33 1.19995H69.89L65.36 8.65995Z" fill="#002D74"/>
<path d="M154.84 1.19995H150.85V18.26H154.84V1.19995Z" fill="#002D74"/>
<path d="M55.67 21.97H54.61V26.74H55.67V21.97Z" fill="#002D74"/>
<path d="M77.49 21.97H76.43V26.74H77.49V21.97Z" fill="#002D74"/>
<path d="M47.5 26.74L45.33 23.47V26.74H44.33V21.97H45.4L47.57 25.31V21.97H48.57V26.74H47.5Z" fill="#002D74"/>
<path d="M59.7 26.74L57.53 23.47V26.74H56.52V21.97H57.6L59.77 25.31V21.97H60.77V26.74H59.7Z" fill="#002D74"/>
<path d="M81.53 26.74L79.36 23.47V26.74H78.36V21.97H79.43L81.6 25.31V21.97H82.6V26.74H81.53Z" fill="#002D74"/>
<path d="M39.54 25.83H43.48V26.74H39.54V25.83ZM39.54 21.97H43.48V22.89H39.54V21.97ZM43.1 24.81H40.58V26.74H39.54V21.97H40.58V23.92H43.1V24.81Z" fill="#002D74"/>
<path d="M61.62 25.83H65.56V26.74H61.62V25.83ZM61.62 21.97H65.56V22.89H61.62V21.97ZM65.18 24.81H62.66V26.74H61.62V21.97H62.66V23.92H65.18V24.81Z" fill="#002D74"/>
<path d="M66.41 25.83H70.35V26.74H66.41V25.83ZM66.41 21.97H70.35V22.89H66.41V21.97ZM69.97 24.81H67.46V26.74H66.42V21.97H67.46V23.92H69.97V24.81Z" fill="#002D74"/>
<path d="M50.48 26.74C49.77 26.74 49.42 26.39 49.42 25.68V23.02C49.42 22.31 49.77 21.96 50.48 21.96H53.57V22.9H50.75C50.57 22.9 50.48 22.99 50.48 23.16V25.52C50.48 25.7 50.57 25.8 50.76 25.8H52.47C52.65 25.8 52.75 25.71 52.75 25.52V24.78H51.51V23.89H53.75V25.67C53.75 26.37 53.4 26.72 52.71 26.73H50.48V26.74Z" fill="#002D74"/>
<path d="M84.51 26.74C83.8 26.74 83.45 26.39 83.45 25.68V23.02C83.45 22.31 83.8 21.96 84.51 21.96H87.6V22.9H84.78C84.6 22.9 84.51 22.99 84.51 23.16V25.52C84.51 25.7 84.6 25.8 84.79 25.8H86.5C86.68 25.8 86.78 25.71 86.78 25.52V24.78H85.54V23.89H87.78V25.67C87.78 26.37 87.43 26.72 86.74 26.73H84.51V26.74Z" fill="#002D74"/>
<path d="M74.67 25.06L75.73 26.74H74.65L73.58 25.06H74.67ZM74.34 24.06V23.17C74.34 22.99 74.25 22.91 74.07 22.91H72.25V24.34H74.06C74.25 24.34 74.34 24.25 74.34 24.06ZM75.38 24.19C75.38 24.89 75.03 25.25 74.32 25.25H72.25V26.74H71.2V21.97H74.32C75.02 21.97 75.38 22.32 75.38 23.03V24.19Z" fill="#002D74"/>
<path d="M144.52 21.97H143.46V26.74H144.52V21.97Z" fill="#002D74"/>
<path d="M111.43 26.74L109.26 23.47V26.74H108.26V21.97H109.34L111.5 25.31V21.97H112.51V26.74H111.43Z" fill="#002D74"/>
<path d="M102.2 26.74H99.36C98.66 26.74 98.3 26.39 98.3 25.68V23.02C98.3 22.31 98.65 21.96 99.36 21.96H102.2V22.9H99.63C99.45 22.9 99.36 22.99 99.36 23.16V25.52C99.36 25.7 99.45 25.8 99.63 25.8H102.19V26.74H102.2Z" fill="#002D74"/>
<path d="M137.42 26.74H134.58C133.87 26.74 133.52 26.39 133.52 25.68V23.02C133.52 22.31 133.87 21.96 134.58 21.96H137.42V22.9H134.85C134.67 22.9 134.58 22.99 134.58 23.16V25.52C134.58 25.7 134.67 25.8 134.85 25.8H137.41V26.74H137.42Z" fill="#002D74"/>
<path d="M106.09 22.91H104.37C104.19 22.91 104.1 23 104.1 23.17V25.53C104.1 25.71 104.19 25.81 104.37 25.81H106.08C106.26 25.81 106.35 25.72 106.35 25.53V23.17C106.36 23 106.27 22.91 106.09 22.91ZM104.11 21.97H106.36C107.06 21.97 107.42 22.32 107.42 23.03V25.68C107.42 26.38 107.07 26.74 106.36 26.74H104.11C103.41 26.74 103.05 26.39 103.05 25.68V23.03C103.05 22.33 103.4 21.97 104.11 21.97Z" fill="#002D74"/>
<path d="M153.77 26.74L151.6 23.47V26.74H150.6V21.97H151.68L153.84 25.31V21.97H154.84V26.74H153.77Z" fill="#002D74"/>
<path d="M148.42 22.9H146.69C146.51 22.9 146.42 22.99 146.42 23.16V25.53C146.42 25.71 146.51 25.81 146.69 25.81H148.41C148.59 25.81 148.68 25.72 148.68 25.53V23.16C148.69 22.99 148.6 22.9 148.42 22.9ZM146.43 21.96H148.68C149.38 21.96 149.74 22.31 149.74 23.02V25.68C149.74 26.39 149.39 26.74 148.68 26.74H146.43C145.73 26.74 145.37 26.39 145.37 25.68V23.02C145.38 22.32 145.73 21.96 146.43 21.96Z" fill="#002D74"/>
<path d="M126.81 25.07L127.87 26.74H126.79L125.72 25.07H126.81ZM126.49 24.06V23.17C126.49 23 126.4 22.91 126.22 22.91H124.4V24.34H126.21C126.39 24.34 126.49 24.25 126.49 24.06ZM127.52 24.19C127.52 24.9 127.17 25.25 126.46 25.25H124.39V26.74H123.34V21.97H126.46C127.16 21.97 127.52 22.32 127.52 23.03V24.19Z" fill="#002D74"/>
<path d="M113.55 26.74V25.82H116.34C116.52 25.82 116.61 25.73 116.61 25.54V25.06C116.61 24.89 116.52 24.8 116.34 24.8H114.35V23.91H116.64C117.31 23.91 117.64 24.23 117.64 24.88V25.68C117.64 26.38 117.29 26.74 116.59 26.74H113.55ZM117.4 21.97V22.9H114.66C114.48 22.9 114.39 22.99 114.39 23.16V23.63C114.39 23.81 114.48 23.91 114.67 23.91H116.66V24.8H114.37C113.7 24.8 113.37 24.47 113.37 23.82V23.03C113.37 22.33 113.72 21.97 114.42 21.97H117.4Z" fill="#002D74"/>
<path d="M118.24 21.97H120.4H122.57V22.93H120.94V26.74H120.4H119.89V22.93H118.24V21.97Z" fill="#002D74"/>
<path d="M138.27 21.97H140.44H142.61V22.93H140.97V26.74H140.44H139.92V22.93H138.27V21.97Z" fill="#002D74"/>
<path d="M131.62 25.54V21.98H132.67V25.69C132.67 26.39 132.32 26.74 131.61 26.74H129.43C128.73 26.74 128.38 26.39 128.38 25.69V21.98H129.43V25.54C129.43 25.72 129.52 25.81 129.7 25.81H131.35C131.52 25.81 131.62 25.72 131.62 25.54Z" fill="#002D74"/>
<path d="M94.35 25.42L95.08 24.6L94.39 24L93.7 24.75L92.28 23.29V22.95C92.28 22.9 92.29 22.9 92.33 22.9H92.97C93.01 22.9 93.02 22.9 93.02 22.95V23.56H94V22.88C94 22.14 93.56 21.98 93.19 21.98H92.12C91.59 21.98 91.31 22.27 91.31 22.81V23.26C91.31 23.55 91.43 23.82 91.66 24.06L91.67 24.07L91.18 24.45C90.92 24.65 90.79 24.92 90.79 25.24V25.74C90.79 26.56 91.29 26.74 91.71 26.74H92.72C93.04 26.74 93.29 26.63 93.49 26.4L93.73 26.12L94.35 26.73H95.63L94.35 25.42ZM93.05 25.45L92.78 25.74C92.73 25.79 92.68 25.81 92.62 25.81H91.93C91.86 25.81 91.83 25.79 91.83 25.7V25.27C91.83 25.19 91.86 25.13 91.92 25.09L92.35 24.74L93.05 25.45Z" fill="#002D74"/>
</svg>
